<?xml version="1.0" encoding="utf-8"?>
<!-- Generator: Adobe Illustrator 22.0.1, SVG Export Plug-In . SVG Version: 6.00 Build 0)  -->
<svg version="1.1" xmlns="http://www.w3.org/2000/svg" xmlns:xlink="http://www.w3.org/1999/xlink" x="0px" y="0px" width="145.3px"
	 height="146.1px" viewBox="0 0 145.3 146.1" style="enable-background:new 0 0 145.3 146.1;" xml:space="preserve">
<style type="text/css">
	.st0{fill:url(#SVGID_1_);}
	.st1{fill:url(#SVGID_2_);}
	.st2{fill:#F7F7F7;}
	.st3{fill:#DFDFE0;}
	.st4{fill:none;stroke:#9E9E9F;stroke-miterlimit:10;}
	.st5{fill:none;stroke:#C8C8C9;stroke-width:0.5;stroke-miterlimit:10;}
	.st6{fill:#FFFFFF;}
</style>
<g id="BACK">
</g>
<g id="_x32_">
	<g>
		<radialGradient id="SVGID_1_" cx="56.6665" cy="13.3735" r="132.3489" gradientUnits="userSpaceOnUse">
			<stop  offset="0" style="stop-color:#FAFAFA"/>
			<stop  offset="0.7574" style="stop-color:#F5F5F5"/>
			<stop  offset="1" style="stop-color:#F2F2F2"/>
		</radialGradient>
		<circle class="st0" cx="72.7" cy="73" r="72.7"/>
		<radialGradient id="SVGID_2_" cx="72.6665" cy="74.0405" r="65.9998" gradientUnits="userSpaceOnUse">
			<stop  offset="0.7783" style="stop-color:#FFFFFF"/>
			<stop  offset="0.8578" style="stop-color:#FDFDFD"/>
			<stop  offset="0.9033" style="stop-color:#F4F4F4"/>
			<stop  offset="0.9402" style="stop-color:#E6E6E6"/>
			<stop  offset="0.9557" style="stop-color:#DEDEDE"/>
			<stop  offset="0.9652" style="stop-color:#D9D9D9"/>
			<stop  offset="0.9762" style="stop-color:#CBCBCB"/>
			<stop  offset="0.9879" style="stop-color:#B4B4B4"/>
			<stop  offset="1" style="stop-color:#949494"/>
		</radialGradient>
		<circle class="st1" cx="72.7" cy="73" r="64.7"/>
		<g>
			<path class="st2" d="M0,73c0,0,0-0.9,0-2.6c0-0.8,0.1-1.9,0.2-3.1c0-0.6,0.1-1.3,0.1-1.9c0.1-0.7,0.2-1.4,0.3-2.2
				c0.4-3.1,1-6.8,2.3-11c1.2-4.2,3-8.8,5.5-13.5c2.5-4.7,5.8-9.6,9.9-14.2c2.1-2.3,4.3-4.5,6.7-6.6c2.4-2.1,5.1-4.1,7.9-6
				c5.6-3.7,11.9-6.7,18.7-8.7c3.4-1,6.9-1.8,10.4-2.3c3.5-0.5,7.1-0.8,10.7-0.8c3.6,0,7.2,0.3,10.7,0.8c3.5,0.6,7,1.3,10.4,2.3
				c6.7,2.1,13.1,5.1,18.7,8.8c2.8,1.8,5.5,3.8,7.9,6c2.5,2.1,4.7,4.4,6.7,6.6c4.1,4.6,7.4,9.4,9.9,14.2c2.5,4.7,4.3,9.4,5.5,13.5
				c1.2,4.2,1.9,7.9,2.3,11c0.1,0.8,0.2,1.5,0.3,2.2c0.1,0.7,0.1,1.3,0.1,1.9c0.1,1.2,0.2,2.2,0.2,3.1c0,1.7,0,2.6,0,2.6
				s0-0.9-0.1-2.6c0-0.8-0.1-1.9-0.2-3.1c-0.1-0.6-0.1-1.3-0.2-1.9c-0.1-0.7-0.2-1.4-0.3-2.2c-0.4-3.1-1.1-6.8-2.4-11
				c-1.3-4.1-3.1-8.7-5.6-13.4c-2.5-4.7-5.8-9.5-9.9-14.1c-2.1-2.3-4.3-4.5-6.7-6.6c-2.4-2.1-5.1-4.1-7.8-5.9
				c-5.6-3.6-11.9-6.6-18.6-8.6c-3.3-1-6.8-1.7-10.3-2.3c-3.5-0.5-7-0.7-10.6-0.8c-3.5,0-7.1,0.2-10.6,0.8c-3.5,0.5-7,1.3-10.3,2.3
				c-6.7,2-13,5-18.6,8.6c-2.8,1.8-5.4,3.8-7.8,5.9c-2.5,2.1-4.7,4.3-6.7,6.6c-4.1,4.6-7.4,9.3-9.9,14.1c-2.5,4.7-4.3,9.3-5.6,13.4
				c-1.3,4.1-2,7.9-2.4,11c-0.1,0.8-0.2,1.5-0.3,2.2c-0.1,0.7-0.1,1.3-0.2,1.9c-0.1,1.2-0.2,2.2-0.2,3.1C0,72.1,0,73,0,73z"/>
		</g>
		<g>
			<path class="st3" d="M145.3,73c0,0,0,0.9,0,2.6c0,0.8-0.1,1.9-0.2,3.1c0,0.6-0.1,1.3-0.1,1.9c-0.1,0.7-0.2,1.4-0.3,2.2
				c-0.4,3.1-1,6.8-2.3,11c-1.2,4.2-3,8.8-5.5,13.5c-2.5,4.7-5.8,9.6-9.9,14.2c-2.1,2.3-4.3,4.5-6.7,6.6c-2.4,2.1-5.1,4.1-7.9,6
				c-5.6,3.7-11.9,6.7-18.7,8.7c-3.4,1-6.9,1.8-10.4,2.3c-3.5,0.5-7.1,0.8-10.7,0.8c-3.6,0-7.2-0.3-10.7-0.8
				c-3.5-0.6-7-1.3-10.4-2.3c-6.7-2.1-13.1-5.1-18.7-8.8c-2.8-1.8-5.5-3.8-7.9-6c-2.5-2.1-4.7-4.4-6.7-6.6
				c-4.1-4.6-7.4-9.4-9.9-14.2c-2.5-4.7-4.3-9.4-5.5-13.5c-1.2-4.2-1.9-7.9-2.3-11c-0.1-0.8-0.2-1.5-0.3-2.2
				c-0.1-0.7-0.1-1.3-0.1-1.9C0.1,77.5,0,76.4,0,75.6C0,73.9,0,73,0,73s0,0.9,0.1,2.6c0,0.8,0.1,1.9,0.2,3.1
				c0.1,0.6,0.1,1.3,0.2,1.9c0.1,0.7,0.2,1.4,0.3,2.2c0.4,3.1,1.1,6.8,2.4,11c1.3,4.1,3.1,8.7,5.6,13.4c2.5,4.7,5.8,9.5,9.9,14.1
				c2.1,2.3,4.3,4.5,6.7,6.6c2.4,2.1,5.1,4.1,7.8,5.9c5.6,3.6,11.9,6.6,18.6,8.6c3.3,1,6.8,1.7,10.3,2.3c3.5,0.5,7,0.7,10.6,0.8
				c3.5,0,7.1-0.2,10.6-0.8c3.5-0.5,7-1.3,10.3-2.3c6.7-2,13-5,18.6-8.6c2.8-1.8,5.4-3.8,7.8-5.9c2.5-2.1,4.7-4.3,6.7-6.6
				c4.1-4.6,7.4-9.3,9.9-14.1c2.5-4.7,4.3-9.3,5.6-13.4c1.3-4.1,2-7.9,2.4-11c0.1-0.8,0.2-1.5,0.3-2.2c0.1-0.7,0.1-1.3,0.2-1.9
				c0.1-1.2,0.2-2.2,0.2-3.1C145.3,73.9,145.3,73,145.3,73z"/>
		</g>
	</g>
	<g>
		<line class="st4" x1="72.7" y1="12.8" x2="72.7" y2="17.3"/>
		<line class="st4" x1="42.5" y1="20.9" x2="44.8" y2="24.8"/>
		<line class="st4" x1="20.5" y1="42.9" x2="24.4" y2="45.2"/>
		<line class="st4" x1="12.4" y1="73" x2="16.9" y2="73"/>
		<line class="st4" x1="20.5" y1="103.2" x2="24.4" y2="100.9"/>
		<line class="st4" x1="42.5" y1="125.2" x2="44.8" y2="121.3"/>
		<line class="st4" x1="72.7" y1="133.3" x2="72.7" y2="128.8"/>
		<line class="st4" x1="102.8" y1="125.2" x2="100.5" y2="121.3"/>
		<line class="st4" x1="124.8" y1="103.2" x2="120.9" y2="100.9"/>
		<line class="st4" x1="132.9" y1="73" x2="128.4" y2="73"/>
		<line class="st4" x1="124.8" y1="42.9" x2="120.9" y2="45.2"/>
		<line class="st4" x1="102.8" y1="20.9" x2="100.5" y2="24.8"/>
	</g>
	<g>
		<line class="st5" x1="66.4" y1="13.1" x2="66.7" y2="15.9"/>
		<line class="st5" x1="60.1" y1="14.1" x2="60.7" y2="16.9"/>
		<line class="st5" x1="54" y1="15.7" x2="54.9" y2="18.4"/>
		<line class="st5" x1="48.2" y1="18" x2="49.3" y2="20.6"/>
		<line class="st5" x1="37.3" y1="24.3" x2="38.9" y2="26.6"/>
		<line class="st5" x1="32.4" y1="28.3" x2="34.2" y2="30.4"/>
		<line class="st5" x1="27.9" y1="32.7" x2="30" y2="34.6"/>
		<line class="st5" x1="23.9" y1="37.6" x2="26.2" y2="39.3"/>
		<line class="st5" x1="17.6" y1="48.5" x2="20.2" y2="49.7"/>
		<line class="st5" x1="15.4" y1="54.4" x2="18.1" y2="55.3"/>
		<line class="st5" x1="13.7" y1="60.5" x2="16.5" y2="61.1"/>
		<line class="st5" x1="12.7" y1="66.7" x2="15.6" y2="67"/>
		<line class="st5" x1="12.7" y1="79.3" x2="15.6" y2="79"/>
		<line class="st5" x1="13.7" y1="85.6" x2="16.5" y2="85"/>
		<line class="st5" x1="15.4" y1="91.7" x2="18.1" y2="90.8"/>
		<line class="st5" x1="17.6" y1="97.5" x2="20.2" y2="96.4"/>
		<line class="st5" x1="23.9" y1="108.5" x2="26.2" y2="106.8"/>
		<line class="st5" x1="27.9" y1="113.4" x2="30" y2="111.5"/>
		<line class="st5" x1="32.3" y1="117.8" x2="34.2" y2="115.7"/>
		<line class="st5" x1="37.2" y1="121.8" x2="38.9" y2="119.5"/>
		<line class="st5" x1="48.2" y1="128.1" x2="49.3" y2="125.5"/>
		<line class="st5" x1="54" y1="130.3" x2="54.9" y2="127.6"/>
		<line class="st5" x1="60.1" y1="132" x2="60.7" y2="129.2"/>
		<line class="st5" x1="66.4" y1="133" x2="66.7" y2="130.1"/>
		<line class="st5" x1="79" y1="133" x2="78.7" y2="130.1"/>
		<line class="st5" x1="85.2" y1="132" x2="84.6" y2="129.2"/>
		<line class="st5" x1="91.3" y1="130.3" x2="90.4" y2="127.6"/>
		<line class="st5" x1="97.2" y1="128.1" x2="96" y2="125.5"/>
		<line class="st5" x1="108.1" y1="121.8" x2="106.4" y2="119.5"/>
		<line class="st5" x1="113" y1="117.8" x2="111.1" y2="115.7"/>
		<line class="st5" x1="117.4" y1="113.4" x2="115.3" y2="111.5"/>
		<line class="st5" x1="121.4" y1="108.5" x2="119.1" y2="106.8"/>
		<line class="st5" x1="127.7" y1="97.5" x2="125.1" y2="96.4"/>
		<line class="st5" x1="130" y1="91.7" x2="127.3" y2="90.8"/>
		<line class="st5" x1="131.6" y1="85.6" x2="128.8" y2="85"/>
		<line class="st5" x1="132.6" y1="79.3" x2="129.8" y2="79"/>
		<line class="st5" x1="132.6" y1="66.7" x2="129.8" y2="67"/>
		<line class="st5" x1="131.6" y1="60.5" x2="128.8" y2="61.1"/>
		<line class="st5" x1="130" y1="54.4" x2="127.3" y2="55.3"/>
		<line class="st5" x1="127.7" y1="48.5" x2="125.1" y2="49.7"/>
		<line class="st5" x1="121.4" y1="37.6" x2="119.1" y2="39.3"/>
		<line class="st5" x1="117.4" y1="32.7" x2="115.3" y2="34.6"/>
		<line class="st5" x1="113" y1="28.3" x2="111.1" y2="30.4"/>
		<line class="st5" x1="108.1" y1="24.3" x2="106.4" y2="26.6"/>
		<line class="st5" x1="97.2" y1="18" x2="96" y2="20.6"/>
		<line class="st5" x1="91.3" y1="15.7" x2="90.4" y2="18.4"/>
		<line class="st5" x1="85.2" y1="14.1" x2="84.6" y2="16.9"/>
		<line class="st5" x1="79" y1="13.1" x2="78.7" y2="15.9"/>
	</g>
	<g>
		<path class="st3" d="M8,73c0,0,0-0.8,0-2.3C8,70,8.1,69.1,8.2,68c0-0.5,0.1-1.1,0.1-1.7c0.1-0.6,0.2-1.3,0.2-2
			c0.4-2.8,0.9-6.1,2-9.8c1.1-3.7,2.6-7.8,4.9-12.1c2.2-4.2,5.2-8.5,8.8-12.6c1.8-2,3.8-4,6-5.9c2.2-1.9,4.5-3.7,7-5.3
			c5-3.3,10.6-6,16.6-7.8c3-0.9,6.1-1.6,9.2-2.1C66.3,8.3,69.5,8,72.7,8c3.2,0,6.4,0.3,9.5,0.7c3.1,0.5,6.2,1.2,9.2,2.1
			c6,1.8,11.6,4.5,16.6,7.8c2.5,1.6,4.9,3.4,7,5.3c2.2,1.9,4.2,3.9,6,5.9c3.6,4.1,6.6,8.4,8.8,12.6c2.2,4.2,3.8,8.3,4.9,12.1
			c1.1,3.7,1.7,7.1,2,9.8c0.1,0.7,0.2,1.3,0.2,2c0,0.6,0.1,1.2,0.1,1.7c0.1,1.1,0.1,2,0.1,2.7c0,1.5,0,2.3,0,2.3s0-0.8-0.1-2.3
			c0-0.7-0.1-1.7-0.2-2.7c0-0.5-0.1-1.1-0.2-1.7c-0.1-0.6-0.2-1.3-0.3-2c-0.4-2.7-1-6.1-2.2-9.8c-1.1-3.7-2.7-7.8-5-11.9
			c-2.2-4.2-5.2-8.4-8.8-12.5c-1.8-2-3.8-4-6-5.8c-2.1-1.9-4.5-3.6-7-5.2c-5-3.2-10.6-5.9-16.5-7.6c-3-0.9-6.1-1.5-9.2-2
			C79,9,75.8,8.8,72.7,8.7c-3.2,0-6.3,0.2-9.4,0.7c-3.1,0.5-6.2,1.1-9.2,2c-6,1.8-11.6,4.4-16.5,7.6c-2.5,1.6-4.8,3.4-7,5.2
			c-2.2,1.8-4.1,3.8-6,5.8c-3.6,4.1-6.6,8.3-8.8,12.5c-2.2,4.2-3.9,8.3-5,11.9c-1.2,3.7-1.8,7-2.2,9.8c-0.1,0.7-0.2,1.3-0.3,2
			c-0.1,0.6-0.1,1.2-0.2,1.7c-0.1,1.1-0.2,2-0.2,2.7C8,72.2,8,73,8,73z"/>
	</g>
	<g>
		<path class="st6" d="M137.3,73c0,0,0,0.8,0,2.3c0,0.7-0.1,1.7-0.1,2.7c0,0.5-0.1,1.1-0.1,1.7c-0.1,0.6-0.2,1.3-0.2,2
			c-0.4,2.8-0.9,6.1-2,9.8c-1.1,3.7-2.6,7.8-4.9,12.1c-2.2,4.2-5.2,8.5-8.8,12.6c-1.8,2-3.8,4-6,5.9c-2.2,1.9-4.5,3.7-7,5.3
			c-5,3.3-10.6,6-16.6,7.8c-3,0.9-6.1,1.6-9.2,2.1c-3.1,0.5-6.3,0.7-9.5,0.7c-3.2,0-6.4-0.3-9.5-0.7c-3.1-0.5-6.2-1.2-9.2-2.1
			c-6-1.8-11.6-4.5-16.6-7.8c-2.5-1.6-4.9-3.4-7-5.3c-2.2-1.9-4.2-3.9-6-5.9c-3.6-4.1-6.6-8.4-8.8-12.6c-2.2-4.2-3.8-8.3-4.9-12.1
			c-1.1-3.7-1.7-7.1-2-9.8c-0.1-0.7-0.2-1.3-0.2-2c0-0.6-0.1-1.2-0.1-1.7C8.1,77,8,76.1,8,75.3C8,73.8,8,73,8,73s0,0.8,0.1,2.3
			c0,0.7,0.1,1.7,0.2,2.7c0,0.5,0.1,1.1,0.2,1.7c0.1,0.6,0.2,1.3,0.3,2c0.4,2.7,1,6.1,2.2,9.8c1.1,3.7,2.7,7.8,5,11.9
			c2.2,4.2,5.2,8.4,8.8,12.5c1.8,2,3.8,4,6,5.8c2.1,1.9,4.5,3.6,7,5.2c5,3.2,10.6,5.9,16.5,7.6c3,0.9,6.1,1.5,9.2,2
			c3.1,0.5,6.3,0.6,9.4,0.7c3.2,0,6.3-0.2,9.4-0.7c3.1-0.5,6.2-1.1,9.2-2c6-1.8,11.6-4.4,16.5-7.6c2.5-1.6,4.8-3.4,7-5.2
			c2.2-1.8,4.1-3.8,6-5.8c3.6-4.1,6.6-8.3,8.8-12.5c2.2-4.2,3.9-8.3,5-11.9c1.2-3.7,1.8-7,2.2-9.8c0.1-0.7,0.2-1.3,0.3-2
			c0.1-0.6,0.1-1.2,0.2-1.7c0.1-1.1,0.2-2,0.2-2.7C137.3,73.8,137.3,73,137.3,73z"/>
	</g>
</g>
<g id="_x31_">
</g>
</svg>
